<svg width="65" height="65" viewBox="0 0 65 65" fill="none" xmlns="http://www.w3.org/2000/svg">
<circle cx="32.5" cy="32.5" r="32.5" fill="#44ACA0"/>
<path d="M29.2187 33.9583C29.2187 32.1461 30.6877 30.6771 32.4999 30.6771C34.3121 30.6771 35.7812 32.1461 35.7812 33.9583C35.7812 35.7705 34.3121 37.2396 32.4999 37.2396C30.6877 37.2396 29.2187 35.7705 29.2187 33.9583Z" fill="white"/>
<path fill-rule="evenodd" clip-rule="evenodd" d="M25.899 26.1452C25.899 23.6143 27.9508 21.5625 30.4817 21.5625H34.518C37.049 21.5625 39.1008 23.6143 39.1008 26.1452C39.1008 26.1669 39.1174 26.1849 39.139 26.1866L42.3904 26.4507C43.8469 26.569 45.0447 27.646 45.3166 29.0818C46.0103 32.7456 46.062 36.502 45.4695 40.1835L45.3276 41.0647C45.0603 42.7256 43.6933 43.9892 42.0165 44.1254L39.184 44.3554C34.7352 44.7167 30.2645 44.7167 25.8158 44.3554L22.9832 44.1254C21.3065 43.9892 19.9395 42.7256 19.6721 41.0647L19.5303 40.1835C18.9377 36.502 18.9895 32.7456 19.6832 29.0818C19.955 27.646 21.1529 26.569 22.6093 26.4507L25.8608 26.1866C25.8824 26.1849 25.899 26.1669 25.899 26.1452ZM32.4999 28.4896C29.4796 28.4896 27.0312 30.938 27.0312 33.9583C27.0312 36.9786 29.4796 39.4271 32.4999 39.4271C35.5202 39.4271 37.9687 36.9786 37.9687 33.9583C37.9687 30.938 35.5202 28.4896 32.4999 28.4896Z" fill="white"/>
</svg>
