<svg width="40" height="35" viewBox="0 0 40 35" fill="none" xmlns="http://www.w3.org/2000/svg">
<path d="M22.9933 6.03162C21.3559 4.55196 18.6438 4.55196 17.0065 6.03161L9.00901 13.2587C8.54971 13.6738 8.24106 14.1985 8.12197 14.7668C7.1507 19.4013 7.07901 24.1459 7.9099 28.8013L8.20407 30.4495C8.29699 30.9701 8.80942 31.3539 9.4116 31.3539H14.9999C15.4601 31.3539 15.8332 31.0275 15.8332 30.6248V20.4164H24.1665V30.6248C24.1665 31.0275 24.5396 31.3539 24.9999 31.3539H30.5881C31.1902 31.3539 31.7027 30.9701 31.7956 30.4495L32.0898 28.8013C32.9207 24.146 32.849 19.4013 31.8777 14.7668C31.7586 14.1985 31.45 13.6738 30.9907 13.2587L22.9933 6.03162Z" fill="#44ACA0"/>
</svg>
