<svg width="25" height="25" viewBox="0 0 25 25" fill="none" xmlns="http://www.w3.org/2000/svg">
<path d="M12.5 2.5C9.43175 2.5 6.94444 4.73858 6.94444 7.5C6.94444 10.2614 9.43175 12.5 12.5 12.5C15.5682 12.5 18.0556 10.2614 18.0556 7.5C18.0556 4.73858 15.5682 2.5 12.5 2.5ZM4.16667 7.5C4.16667 3.35786 7.89763 0 12.5 0C17.1024 0 20.8333 3.35786 20.8333 7.5C20.8333 11.6421 17.1024 15 12.5 15C7.89763 15 4.16667 11.6421 4.16667 7.5ZM6.94444 20C4.64326 20 2.77778 21.6789 2.77778 23.75C2.77778 24.4404 2.15595 25 1.38889 25C0.621827 25 0 24.4404 0 23.75C0 20.2982 3.10914 17.5 6.94444 17.5H18.0556C21.8909 17.5 25 20.2982 25 23.75C25 24.4404 24.3782 25 23.6111 25C22.844 25 22.2222 24.4404 22.2222 23.75C22.2222 21.6789 20.3567 20 18.0556 20H6.94444Z" fill="#44ACA0"/>
</svg>
